<?xml version="1.0" standalone="no"?>
<!DOCTYPE svg PUBLIC "-//W3C//DTD SVG 20010904//EN"
 "http://www.w3.org/TR/2001/REC-SVG-20010904/DTD/svg10.dtd">
<svg version="1.0" xmlns="http://www.w3.org/2000/svg"
 width="512.000000pt" height="512.000000pt" viewBox="0 0 512.000000 512.000000"
 preserveAspectRatio="xMidYMid meet">
<metadata>
Created by potrace 1.16, written by Peter Selinger 2001-2019
</metadata>
<g transform="translate(0.000000,512.000000) scale(0.100000,-0.100000)"
fill="#000000" stroke="none">
<path d="M3625 5100 c-80 -26 -164 -77 -192 -118 -14 -22 -50 -151 -110 -393
-48 -198 -90 -365 -93 -370 -4 -5 -45 0 -101 13 -129 30 -458 33 -589 5 -188
-40 -362 -113 -522 -218 -77 -51 -159 -128 -474 -443 -315 -315 -392 -397
-443 -474 -105 -160 -178 -334 -218 -522 -28 -131 -25 -460 5 -589 13 -56 18
-97 13 -101 -5 -3 -172 -45 -370 -93 -242 -60 -371 -96 -393 -110 -79 -54
-138 -205 -138 -356 0 -112 15 -174 67 -273 32 -62 152 -198 174 -198 5 0 9
-28 9 -63 0 -140 56 -263 170 -377 113 -114 239 -170 379 -170 34 0 61 -4 61
-9 0 -4 29 -38 65 -74 114 -113 246 -167 411 -167 146 0 298 60 351 138 14 22
50 151 110 393 48 198 90 365 93 370 4 5 45 0 101 -13 129 -30 458 -33 589 -5
188 40 362 113 522 218 77 51 159 128 474 443 315 315 392 397 443 474 105
160 178 334 218 522 28 131 25 460 -5 589 -13 56 -18 97 -13 101 5 3 172 45
370 93 242 60 371 96 393 110 79 54 138 205 138 356 0 112 -15 174 -67 273
-32 62 -152 198 -174 198 -5 0 -9 28 -9 63 0 140 -56 263 -170 377 -114 114
-237 170 -377 170 -35 0 -63 4 -63 9 0 4 -29 38 -65 74 -69 69 -162 124 -254
151 -77 23 -238 21 -316 -4z m282 -316 c52 -25 107 -93 141 -176 18 -42 32
-81 32 -87 0 -15 3 -14 95 14 104 33 166 32 233 -1 91 -45 151 -136 152 -229
0 -27 -11 -86 -25 -130 -13 -44 -21 -83 -17 -86 4 -4 43 -22 87 -39 95 -39
173 -110 193 -176 16 -53 15 -145 0 -167 -9 -12 -119 -43 -363 -101 -192 -47
-350 -84 -350 -83 -117 216 -346 445 -562 562 -6 3 168 700 177 709 27 27 138
22 207 -10z m-1107 -2168 l0 -1335 -82 -31 c-114 -44 -217 -69 -315 -77 l-83
-6 0 1335 0 1335 78 30 c142 56 247 80 350 82 l52 1 0 -1334z m394 1274 c178
-61 379 -203 503 -355 92 -113 182 -290 220 -430 24 -90 27 -118 27 -275 1
-191 -8 -249 -64 -401 -71 -194 -146 -291 -494 -639 l-276 -275 0 1198 c0 995
2 1197 13 1197 8 0 40 -9 71 -20z m-1189 -2678 c-11 -11 -123 31 -225 84 -279
145 -496 415 -577 719 -25 91 -27 116 -27 285 1 204 10 259 77 425 71 176 116
233 447 568 l305 309 3 -1193 c1 -656 0 -1195 -3 -1197z m-946 345 c111 -194
336 -413 538 -522 1 0 -36 -158 -83 -350 -58 -244 -89 -354 -101 -362 -15 -12
-62 -18 -103 -14 -98 9 -178 72 -226 176 -18 39 -36 83 -39 98 -4 15 -10 27
-14 27 -3 0 -42 -11 -86 -25 -104 -33 -166 -32 -233 1 -91 45 -151 136 -152
229 0 28 11 86 25 130 13 44 21 83 17 86 -4 4 -43 22 -87 39 -98 40 -173 110
-194 180 -15 51 -16 132 -1 159 8 15 77 35 327 96 175 42 332 81 348 85 17 5
32 9 35 9 3 0 16 -18 29 -42z"/>
</g>
</svg>
