<?xml version="1.0" standalone="no"?>
<!DOCTYPE svg PUBLIC "-//W3C//DTD SVG 20010904//EN"
 "http://www.w3.org/TR/2001/REC-SVG-20010904/DTD/svg10.dtd">
<svg version="1.0" xmlns="http://www.w3.org/2000/svg"
 width="512.000000pt" height="512.000000pt" viewBox="0 0 512.000000 512.000000"
 preserveAspectRatio="xMidYMid meet">
<metadata>
Created by potrace 1.16, written by Peter Selinger 2001-2019
</metadata>
<g transform="translate(0.000000,512.000000) scale(0.100000,-0.100000)"
fill="#000000" stroke="none">
<path d="M0 2560 l0 -2560 2560 0 2560 0 0 2560 0 2560 -2560 0 -2560 0 0
-2560z m1084 1497 c-27 -30 -56 -54 -64 -54 -8 0 -28 -6 -45 -13 -16 -7 -33
-13 -37 -12 -5 1 -8 -2 -8 -8 0 -5 -4 -10 -10 -10 -16 0 -54 -44 -75 -88 -11
-23 -24 -42 -28 -42 -5 0 -6 -14 -2 -31 4 -19 3 -29 -2 -26 -5 4 -27 -12 -48
-33 -22 -22 -42 -40 -45 -40 -14 0 -11 133 5 178 22 67 78 138 138 176 73 46
101 54 191 55 l79 1 -49 -53z"/>
</g>
</svg>
