<?xml version="1.0" standalone="no"?>
<!DOCTYPE svg PUBLIC "-//W3C//DTD SVG 20010904//EN"
 "http://www.w3.org/TR/2001/REC-SVG-20010904/DTD/svg10.dtd">
<svg version="1.0" xmlns="http://www.w3.org/2000/svg"
 width="512.000000pt" height="512.000000pt" viewBox="0 0 512.000000 512.000000"
 preserveAspectRatio="xMidYMid meet">
<metadata>
Created by potrace 1.16, written by Peter Selinger 2001-2019
</metadata>
<g transform="translate(0.000000,512.000000) scale(0.100000,-0.100000)"
fill="#000000" stroke="none">
<path d="M3625 5100 c-80 -26 -164 -77 -191 -118 -15 -22 -50 -145 -105 -370
-45 -185 -85 -341 -89 -345 -5 -5 -41 2 -81 16 -188 65 -323 88 -549 94 -340
10 -607 -51 -898 -203 -393 -206 -697 -547 -858 -964 -146 -380 -153 -854 -17
-1249 14 -40 21 -77 16 -81 -4 -4 -160 -44 -345 -90 -225 -54 -348 -89 -370
-104 -79 -53 -138 -204 -138 -355 0 -112 15 -174 67 -273 32 -62 152 -198 174
-198 5 0 9 -28 9 -63 0 -140 56 -263 170 -377 113 -114 239 -170 379 -170 34
0 61 -4 61 -9 0 -4 29 -38 65 -74 114 -113 246 -167 411 -167 146 0 298 60
350 138 15 22 50 145 105 370 45 185 85 341 90 346 4 5 40 -3 81 -17 187 -65
321 -88 548 -94 206 -6 337 8 515 54 558 145 1021 557 1234 1099 153 390 162
860 24 1263 -14 40 -21 77 -16 81 4 4 160 44 345 89 226 55 348 90 370 105 79
53 138 204 138 355 0 112 -15 174 -67 273 -32 62 -152 198 -174 198 -5 0 -9
27 -9 61 0 140 -56 266 -170 379 -114 114 -237 170 -377 170 -35 0 -63 4 -63
9 0 4 -29 38 -65 74 -69 69 -162 124 -254 151 -77 23 -238 21 -316 -4z m238
-300 c69 -18 133 -79 173 -165 18 -39 36 -83 39 -98 4 -15 10 -27 14 -27 3 0
42 11 86 25 104 33 166 32 233 -1 91 -45 151 -136 152 -229 0 -27 -11 -86 -25
-130 -13 -44 -21 -83 -17 -86 4 -4 43 -22 87 -39 95 -39 173 -110 193 -176 16
-53 15 -145 0 -167 -9 -12 -117 -42 -351 -99 -317 -77 -340 -81 -349 -64 -31
56 -174 231 -248 306 -75 74 -250 217 -306 248 -16 9 -12 34 64 348 45 186 86
342 91 347 11 11 79 26 101 22 8 -2 36 -8 63 -15z m-1135 -750 c233 -65 407
-231 478 -455 91 -288 -22 -600 -278 -769 -54 -36 -134 -73 -125 -59 17 27 27
203 17 299 -45 440 -358 792 -779 877 l-64 13 69 26 c225 83 522 112 682 68z
m923 -447 c198 -205 295 -391 306 -589 23 -404 -307 -733 -711 -711 -137 7
-270 54 -365 128 -22 17 -22 19 -5 25 245 85 440 252 559 477 122 231 148 510
70 754 l-23 73 47 -39 c25 -21 80 -74 122 -118z m-1656 31 c79 -19 207 -83
270 -134 107 -89 196 -231 231 -370 17 -64 25 -233 12 -245 -3 -4 -31 14 -61
38 -113 92 -270 162 -433 193 -118 22 -315 15 -429 -15 -167 -44 -347 -152
-468 -279 l-58 -61 7 37 c30 170 97 361 178 507 53 95 179 219 271 267 157 81
313 102 480 62z m45 -844 c76 -26 142 -58 189 -94 30 -23 32 -26 15 -32 -246
-86 -440 -251 -559 -477 -122 -231 -148 -510 -70 -754 l23 -73 -48 40 c-137
114 -314 336 -370 463 -35 78 -60 195 -60 276 1 311 209 579 512 662 99 26
273 21 368 -11z m277 -437 c-17 -27 -27 -203 -17 -299 37 -361 242 -654 564
-805 83 -38 211 -78 256 -80 37 -1 -43 -34 -155 -65 -206 -56 -430 -70 -567
-35 -418 107 -635 566 -448 946 70 143 172 249 304 315 63 32 70 34 63 23z
m1722 -98 c-39 -184 -114 -370 -197 -492 -125 -184 -337 -296 -561 -294 -115
0 -189 18 -296 71 -140 69 -236 165 -305 305 -22 44 -47 109 -56 145 -17 64
-25 233 -12 245 3 4 31 -14 61 -38 113 -92 270 -162 433 -193 118 -22 315 -15
429 15 167 44 350 154 465 278 30 32 56 58 58 57 1 -1 -7 -45 -19 -99z m-3016
-678 c13 -35 170 -230 247 -307 75 -74 250 -217 306 -248 15 -8 16 -15 7 -53
-139 -577 -156 -640 -174 -649 -27 -15 -107 -14 -157 1 -66 19 -130 82 -168
164 -18 39 -36 83 -39 98 -4 15 -10 27 -14 27 -3 0 -42 -11 -86 -25 -104 -33
-166 -32 -233 1 -91 45 -151 136 -152 229 0 28 11 86 25 130 14 44 25 83 25
86 0 4 -12 10 -27 14 -15 3 -59 21 -98 39 -82 38 -145 102 -164 168 -15 50
-16 130 -1 157 8 15 77 35 327 96 175 42 323 78 328 80 23 8 43 4 48 -8z"/>
</g>
</svg>
