<?xml version="1.0" standalone="no"?>
<!DOCTYPE svg PUBLIC "-//W3C//DTD SVG 20010904//EN"
 "http://www.w3.org/TR/2001/REC-SVG-20010904/DTD/svg10.dtd">
<svg version="1.0" xmlns="http://www.w3.org/2000/svg"
 width="512.000000pt" height="512.000000pt" viewBox="0 0 512.000000 512.000000"
 preserveAspectRatio="xMidYMid meet">
<metadata>
Created by potrace 1.16, written by Peter Selinger 2001-2019
</metadata>
<g transform="translate(0.000000,512.000000) scale(0.100000,-0.100000)"
fill="#000000" stroke="none">
<path d="M1324 4052 c-11 -4 -139 -99 -283 -212 -232 -180 -261 -205 -240
-211 45 -13 3488 -10 3530 2 21 7 54 25 74 41 99 82 103 240 8 330 -64 61 25
58 -1592 57 -812 -1 -1485 -4 -1497 -7z"/>
<path d="M781 2765 c-87 -27 -141 -106 -141 -205 0 -100 58 -181 149 -209 55
-16 3487 -16 3542 0 21 7 54 25 74 41 99 82 103 240 8 330 -65 62 51 58 -1852
57 -1437 0 -1744 -3 -1780 -14z"/>
<path d="M775 1484 c-84 -31 -135 -108 -135 -204 0 -100 58 -181 149 -209 28
-8 390 -11 1337 -10 715 1 1291 3 1281 6 -21 6 505 419 543 426 14 2 -686 5
-1555 5 -1358 0 -1586 -1 -1620 -14z"/>
</g>
</svg>
