<?xml version="1.0" standalone="no"?>
<!DOCTYPE svg PUBLIC "-//W3C//DTD SVG 20010904//EN"
 "http://www.w3.org/TR/2001/REC-SVG-20010904/DTD/svg10.dtd">
<svg version="1.0" xmlns="http://www.w3.org/2000/svg"
 width="4096.000000pt" height="4096.000000pt" viewBox="0 0 4096.000000 4096.000000"
 preserveAspectRatio="xMidYMid meet">
<metadata>
Created by potrace 1.16, written by Peter Selinger 2001-2019
</metadata>
<g transform="translate(0.000000,4096.000000) scale(0.100000,-0.100000)"
fill="#000000" stroke="none">
<path d="M20365 35819 c-261 -22 -507 -121 -695 -278 -36 -31 -2730 -2691
-5986 -5912 -3257 -3221 -5945 -5878 -5975 -5905 -30 -26 -63 -60 -74 -74 -11
-15 -512 -513 -1113 -1106 -738 -728 -1115 -1107 -1158 -1164 -119 -157 -206
-365 -235 -559 -19 -132 -7 -384 24 -501 54 -205 137 -367 272 -528 227 -273
507 -424 856 -462 341 -38 729 89 982 320 l57 52 0 -6713 c0 -7434 -6 -6794
65 -7006 65 -195 159 -348 305 -494 167 -167 348 -270 595 -337 l100 -27
12065 -3 c10880 -2 12074 -1 12158 13 450 75 818 378 979 805 14 36 37 112 51
170 l27 105 2 6738 3 6738 83 -68 c165 -134 309 -210 487 -257 432 -114 893 7
1218 318 154 147 267 328 330 526 43 136 56 226 56 385 1 213 -39 386 -131
570 -87 176 -113 203 -1018 1098 -1045 1034 -1394 1384 -1419 1421 -10 15
-2514 2496 -5565 5513 -3050 3018 -5737 5676 -5971 5908 -234 232 -456 444
-495 473 -83 61 -232 140 -332 176 -150 53 -375 80 -548 65z m5432 -8325
l5302 -5249 0 -7282 1 -7283 -2235 0 -2235 0 -3 5953 c-3 5568 -4 5957 -20
6027 -119 524 -479 889 -987 1002 l-105 23 -5310 0 c-4261 0 -5323 -3 -5377
-13 -261 -49 -484 -161 -665 -334 -155 -149 -267 -328 -332 -530 -66 -208 -61
314 -61 -6205 l0 -5923 -1955 0 -1955 0 1 7283 0 7282 5306 5253 c2918 2889
5310 5251 5317 5249 6 -2 2397 -2366 5313 -5253z m-1737 -14594 l0 -5220
-3860 0 -3860 0 0 5220 0 5220 3860 0 3860 0 0 -5220z"/>
</g>
</svg>
